<svg width="31" height="30" viewBox="0 0 31 30" fill="none" xmlns="http://www.w3.org/2000/svg">
    <g clip-path="url(#clip0_876_45663)">
        <path d="M7.41788 0H24.0821C27.761 0 30.75 2.98905 30.75 6.66788V23.3321C30.75 27.011 27.761 30 24.0821 30H7.41788C3.73905 30 0.75 27.011 0.75 23.3321V6.66788C0.75 2.98905 3.73905 0 7.41788 0Z" fill="#4D8DBD"></path>
        <path d="M24.2244 28.3356H7.35217C4.64779 28.3356 2.45801 26.1458 2.45801 23.4414V6.55822C2.45801 3.85384 4.64779 1.66406 7.35217 1.66406H24.2354C26.9398 1.66406 29.1295 3.85384 29.1295 6.55822V23.4414C29.1186 26.1458 26.9288 28.3356 24.2244 28.3356Z" fill="#216191"></path>
        <path d="M30.75 23.3321C30.75 27.011 27.761 30 24.0821 30H15.75V0H24.0821C27.761 0 30.75 2.98905 30.75 6.66788V23.3321Z" fill="#216191"></path>
        <path d="M15.75 1.66406H23.8631C26.7427 1.66406 29.0748 3.99618 29.0748 6.87574V23.113C29.0748 25.9925 26.7427 28.3246 23.8631 28.3246H15.75V1.66406Z" fill="#0A4A7A"></path>
        <g clip-path="url(#clip1_876_45663)">
            <path d="M22.9913 13.2141C22.9371 13.1047 22.9495 12.9741 23.0234 12.8769C23.1726 12.678 23.1461 12.3983 22.9621 12.2309C22.7782 12.0636 22.4972 12.0636 22.3133 12.2309C22.1293 12.3983 22.1028 12.678 22.252 12.8769C22.325 12.9743 22.3368 13.1046 22.2823 13.2135C22.2279 13.3224 22.1166 13.3912 21.9948 13.3912H20.5484V14.8376C20.5484 14.9594 20.4796 15.0707 20.3707 15.1251C20.2618 15.1796 20.1315 15.1678 20.0341 15.0948C19.8352 14.9456 19.5555 14.9721 19.3882 15.156C19.2209 15.34 19.2209 15.621 19.3882 15.8049C19.5555 15.9888 19.8352 16.0154 20.0341 15.8662C20.1315 15.7931 20.2618 15.7814 20.3707 15.8358C20.4796 15.8903 20.5484 16.0016 20.5484 16.1233V17.5707H24.4056C24.5831 17.5707 24.727 17.4268 24.727 17.2493V13.3921H23.2806C23.1581 13.3928 23.0459 13.3237 22.9913 13.2141Z" fill="#F3F9FF"></path>
            <path d="M9.76378 13.0705C9.66736 12.9342 9.50021 12.7725 9.39832 12.7838C9.29032 12.9737 9.26557 13.7712 9.34721 14.5352C9.45503 15.0967 9.7284 15.6131 10.1321 16.018V16.0148C10.1254 15.5888 10.0771 15.1645 9.98782 14.748C9.88051 14.1937 9.8057 13.6335 9.76378 13.0705Z" fill="white"></path>
            <path d="M16.1676 23.3626H14.6441C13.5281 23.3626 13.0867 22.6847 12.576 21.9004C12.5064 21.7933 12.4335 21.6826 12.3574 21.5684V23.6711C12.3574 23.8487 12.5013 23.9926 12.6789 23.9926H18.1338C18.3113 23.9926 18.4552 23.8487 18.4552 23.6711V21.5684C18.379 21.6817 18.3061 21.7924 18.2367 21.9004C17.725 22.6847 17.2836 23.3626 16.1676 23.3626Z" fill="white"></path>
            <path d="M15.086 17.2498V8.89261C15.086 8.36005 15.5177 7.92832 16.0502 7.92832H19.7316C18.4716 6.14793 15.9143 6.01165 15.7761 6.00586H15.0249C14.8565 6.01357 10.5696 6.25175 10.3963 10.0382C10.2716 12.7083 10.4654 13.7758 10.6213 14.6346C10.7177 15.0892 10.7696 15.5521 10.7762 16.0168C10.7762 16.2662 10.7653 16.5092 10.7544 16.7486C10.702 17.9035 10.6605 18.8158 11.8206 19.917C12.3183 20.4064 12.7538 20.9554 13.1172 21.5514C13.6453 22.3627 13.9098 22.7218 14.6462 22.7218H16.1698C16.9062 22.7218 17.1707 22.3627 17.6988 21.5514C18.0622 20.9554 18.4977 20.4064 18.9955 19.917C19.5106 19.4756 19.8665 18.8773 20.0086 18.214H16.0502C15.5177 18.214 15.086 17.7823 15.086 17.2498Z" fill="white"></path>
            <path d="M19.9081 11.3044C19.9086 11.1834 19.9771 11.0729 20.0853 11.0186C20.1935 10.9643 20.323 10.9754 20.4204 11.0473C20.5498 11.1457 20.7201 11.1723 20.8733 11.118C21.0274 11.0647 21.1434 10.9362 21.1809 10.7776C21.2157 10.6321 21.1815 10.4788 21.088 10.362C20.9224 10.1644 20.6328 10.1269 20.4223 10.2758C20.3249 10.3489 20.1946 10.3606 20.0857 10.3062C19.9769 10.2517 19.9081 10.1404 19.9081 10.0187V8.57227H16.0509C15.8734 8.57227 15.7295 8.71617 15.7295 8.89369V12.7508H16.7053C16.6978 12.6976 16.6939 12.6439 16.6938 12.5901C16.6931 12.0401 17.0902 11.5701 17.6327 11.4792C18.1752 11.3882 18.7039 11.7028 18.8827 12.2231C18.9407 12.3926 18.9579 12.5734 18.9328 12.7508H19.9081V11.3044Z" fill="#F3F9FF"></path>
            <path d="M19.7473 14.357C19.8011 14.3571 19.8548 14.361 19.9081 14.3686V13.3927H18.4616C18.3406 13.3922 18.2301 13.3237 18.1758 13.2155C18.1215 13.1073 18.1326 12.9777 18.2045 12.8803C18.302 12.7509 18.328 12.5811 18.2736 12.4284C18.2204 12.2743 18.0921 12.1581 17.9335 12.1205C17.788 12.0862 17.6348 12.1203 17.5176 12.2131C17.3145 12.3757 17.2771 12.6702 17.4331 12.8784C17.5061 12.9758 17.5179 13.1061 17.4634 13.215C17.409 13.3239 17.2977 13.3927 17.1759 13.3927H15.7295V17.2498C15.7295 17.4274 15.8734 17.5713 16.0509 17.5713H19.9081V16.5954C19.8548 16.603 19.8011 16.6068 19.7473 16.607C19.126 16.607 18.6223 16.1033 18.6223 15.482C18.6223 14.8607 19.126 14.357 19.7473 14.357Z" fill="#F3F9FF"></path>
        </g>
    </g>
    <defs>
        <clipPath id="clip0_876_45663">
            <rect width="30" height="30" fill="white" transform="translate(0.75)"></rect>
        </clipPath>
        <clipPath id="clip1_876_45663">
            <rect width="18" height="18" fill="white" transform="translate(9.29883 6)"></rect>
        </clipPath>
    </defs>
</svg>