<svg width="31" height="30" viewBox="0 0 31 30" fill="none" xmlns="http://www.w3.org/2000/svg">
    <g clip-path="url(#clip0_885_2376)">
        <path d="M7.41788 0H24.0821C27.7609 0 30.75 2.98905 30.75 6.66788V23.3321C30.75 27.0109 27.7609 30 24.0821 30H7.41788C3.73905 30 0.75 27.0109 0.75 23.3321V6.66788C0.75 2.98905 3.73905 0 7.41788 0Z" fill="#4D8DBD"></path>
        <path d="M24.1829 28.3375H7.31067C4.60629 28.3375 2.4165 26.1478 2.4165 23.4434V6.56018C2.4165 3.8558 4.60629 1.66602 7.31067 1.66602H24.1939C26.8983 1.66602 29.088 3.8558 29.088 6.56018V23.4434C29.0771 26.1478 26.8873 28.3375 24.1829 28.3375Z" fill="#216191"></path>
        <path d="M30.75 23.3321C30.75 27.0109 27.7609 30 24.0821 30H15.75V0H24.0821C27.7609 0 30.75 2.98905 30.75 6.66788V23.3321Z" fill="#216191"></path>
        <path d="M15.75 1.66406H23.8631C26.7427 1.66406 29.0748 3.99618 29.0748 6.87574V23.113C29.0748 25.9925 26.7427 28.3247 23.8631 28.3247H15.75V1.66406Z" fill="#0A4A7A"></path>
        <path d="M24.4704 11.5547H21.4704V15.7769C21.4704 17.4436 20.137 18.7769 18.4704 18.7769H12.8037L12.9148 20.5547C12.9148 21.5547 13.6926 22.3325 14.6926 22.3325H19.4704L22.9148 24.6658C23.3593 24.888 23.9148 24.5547 23.9148 24.1102V22.4436H24.4704C25.4704 22.4436 26.2482 21.6658 26.2482 20.6658V13.3325C26.2482 12.3325 25.4704 11.5547 24.4704 11.5547Z" fill="#F3F9FF"></path>
        <path d="M18.3613 6.66602H7.36127C6.36127 6.66602 5.5835 7.44379 5.5835 8.44379V15.7771C5.5835 16.7771 6.36127 17.5549 7.36127 17.5549H7.91683V19.3327C7.91683 19.7771 8.36127 20.1105 8.80572 19.8882C12.1391 17.666 11.3613 18.1105 12.1391 17.666C12.2502 17.5549 12.3613 17.5549 12.4724 17.5549H18.2502C19.2502 17.5549 20.0279 16.7771 20.0279 15.7771V8.44379C20.2502 7.44379 19.3613 6.66602 18.3613 6.66602ZM15.5835 15.3327C15.5835 15.4438 15.4724 15.5549 15.3613 15.5549H10.1391C10.0279 15.5549 9.91683 15.4438 9.91683 15.3327V14.666H15.4724V15.3327H15.5835ZM15.5835 14.3327H9.91683L8.47239 9.99935C8.47239 9.88824 8.47238 9.88824 8.5835 9.77713C8.69461 9.77713 8.69461 9.77713 8.80572 9.77713L11.0279 11.5549L12.5835 8.77713C12.6946 8.66601 12.8057 8.66601 12.9168 8.77713L14.4724 11.666L16.6946 9.88824C16.8057 9.88824 16.8057 9.88824 16.9168 9.88824C17.0279 9.88824 17.0279 9.99935 17.0279 10.1105L15.5835 14.3327Z" fill="#F3F9FF"></path>
    </g>
    <defs>
        <clipPath id="clip0_885_2376">
            <rect width="30" height="30" fill="white" transform="translate(0.75)"></rect>
        </clipPath>
    </defs>
</svg>