<svg width="33" height="32" viewBox="0 0 33 32" fill="none" xmlns="http://www.w3.org/2000/svg">
<path d="M8.72336 2H24.2766C27.7102 2 30.5 4.78978 30.5 8.22336V23.7766C30.5 27.2102 27.7102 30 24.2766 30H8.72336C5.28978 30 2.5 27.2102 2.5 23.7766V8.22336C2.5 4.78978 5.28978 2 8.72336 2Z" fill="#4D8DBD"></path>
<path d="M24.4096 28.4462H8.66218C6.1381 28.4462 4.0943 26.4024 4.0943 23.8783V8.12062C4.0943 5.59653 6.1381 3.55273 8.66218 3.55273H24.4198C26.9439 3.55273 28.9877 5.59653 28.9877 8.12062V23.8783C28.9775 26.4024 26.9337 28.4462 24.4096 28.4462Z" fill="#216191"></path>
<path d="M30.5 23.7766C30.5 27.2102 27.7102 30 24.2766 30H16.5V2H24.2766C27.7102 2 30.5 4.78978 30.5 8.22336V23.7766Z" fill="#216191"></path>
<path d="M16.5 3.55273H24.0723C26.7599 3.55273 28.9365 5.72938 28.9365 8.41697V23.5717C28.9365 26.2593 26.7599 28.4359 24.0723 28.4359H16.5V3.55273Z" fill="#0A4A7A"></path>
<path d="M7.16669 8.66699C7.16669 7.56242 8.06212 6.66699 9.16669 6.66699H16.5V16.0003H7.16669V8.66699Z" fill="#4D8DBD"></path>
<path d="M7.16669 23.333C7.16669 24.4376 8.06212 25.333 9.16669 25.333H16.5V15.9997H7.16669V23.333Z" fill="white"></path>
<path d="M9.5 20.6669L10.9444 22.2224L14.1667 19.1113" stroke="#3070A0" stroke-width="0.8" stroke-linecap="round" stroke-linejoin="round"></path>
<path d="M25.8333 23.333C25.8333 24.4376 24.9379 25.333 23.8333 25.333L16.5 25.333L16.5 15.9997L25.8333 15.9997L25.8333 23.333Z" fill="#4D8DBD"></path>
<path d="M25.8333 8.66699C25.8333 7.56242 24.9379 6.66699 23.8333 6.66699L16.5 6.66699L16.5 16.0003L25.8333 16.0003L25.8333 8.66699Z" fill="white"></path>
<path d="M22.8772 9.77734L18.9883 13.6662M22.8772 13.6662L18.9883 9.77734" stroke="#3070A0" stroke-width="0.8" stroke-linecap="round" stroke-linejoin="round"></path>
</svg>