<svg width="31" height="30" viewBox="0 0 31 30" fill="none" xmlns="http://www.w3.org/2000/svg">
    <path d="M7.41788 0H24.0821C27.761 0 30.75 2.98905 30.75 6.66788V23.3321C30.75 27.011 27.761 30 24.0821 30H7.41788C3.73905 30 0.75 27.011 0.75 23.3321V6.66788C0.75 2.98905 3.73905 0 7.41788 0Z" fill="#4D8DBD"></path>
    <path d="M24.2244 28.3356H7.35217C4.64779 28.3356 2.45801 26.1458 2.45801 23.4414V6.55822C2.45801 3.85384 4.64779 1.66406 7.35217 1.66406H24.2354C26.9398 1.66406 29.1295 3.85384 29.1295 6.55822V23.4414C29.1186 26.1458 26.9288 28.3356 24.2244 28.3356Z" fill="#216191"></path>
    <path d="M30.75 23.3333C30.75 27.0152 27.7652 30 24.0833 30H15.75L15.75 0L24.0833 7.28523e-07C27.7652 1.05041e-06 30.75 2.98477 30.75 6.66667L30.75 23.3333Z" fill="#216191"></path>
    <path d="M15.75 1.66406H23.8631C26.7427 1.66406 29.0748 3.99618 29.0748 6.87574V23.113C29.0748 25.9925 26.7427 28.3246 23.8631 28.3246H15.75V1.66406Z" fill="#0A4A7A"></path>
    <circle cx="15.75" cy="15" r="10" fill="white"></circle>
    <path d="M14.9167 14.166L13.25 17.4993L16.5833 15.8327L14.9167 14.166Z" fill="white"></path>
    <path d="M21.1007 8.44704L13.3999 12.6502L18.1014 17.3518L22.3046 9.651C22.7289 8.87379 21.8779 8.02282 21.1007 8.44704Z" fill="#23AE00"></path>
    <path d="M18.1013 17.3529L22.3044 9.65215C22.5165 9.26351 22.4099 8.85648 22.153 8.59961L15.7505 15.0021L18.1013 17.3529Z" fill="#006800"></path>
    <path d="M9.19313 20.3512L13.3963 12.6504L18.0979 17.3519L10.3971 21.5551C9.61988 21.9793 8.76892 21.1284 9.19313 20.3512Z" fill="#FD4755"></path>
    <path d="M18.097 17.3508L10.3963 21.5539C10.0077 21.766 9.60062 21.6594 9.34375 21.4025L15.7462 15L18.097 17.3508Z" fill="#C10B19"></path>
    <path d="M15.7478 16.9985C16.8503 16.9985 17.7441 16.1047 17.7441 15.0022C17.7441 13.8996 16.8503 13.0059 15.7478 13.0059C14.6452 13.0059 13.7515 13.8996 13.7515 15.0022C13.7515 16.1047 14.6452 16.9985 15.7478 16.9985Z" fill="white"></path>
</svg>