<svg xmlns="http://www.w3.org/2000/svg" width="31" height="30" viewBox="0 0 31 30" fill="none">
    <path d="M7.41788 0H24.0821C27.7609 0 30.75 2.98905 30.75 6.66788V23.3321C30.75 27.0109 27.7609 30 24.0821 30H7.41788C3.73905 30 0.75 27.0109 0.75 23.3321V6.66788C0.75 2.98905 3.73905 0 7.41788 0Z" fill="#4D8DBD"></path>
    <path d="M24.2244 28.3356H7.35217C4.64779 28.3356 2.45801 26.1458 2.45801 23.4414V6.55822C2.45801 3.85384 4.64779 1.66406 7.35217 1.66406H24.2354C26.9398 1.66406 29.1295 3.85384 29.1295 6.55822V23.4414C29.1186 26.1458 26.9288 28.3356 24.2244 28.3356Z" fill="#216191"></path>
    <path d="M30.75 23.3321C30.75 27.0109 27.7609 30 24.0821 30H15.75V0H24.0821C27.7609 0 30.75 2.98905 30.75 6.66788V23.3321Z" fill="#216191"></path>
    <path d="M15.75 1.66406H23.8631C26.7427 1.66406 29.0748 3.99618 29.0748 6.87574V23.113C29.0748 25.9925 26.7427 28.3247 23.8631 28.3247H15.75V1.66406Z" fill="#0A4A7A"></path>
    <path d="M23.0475 12.4262L16.0162 7.5825C15.8562 7.4725 15.645 7.4725 15.4844 7.5825L8.45312 12.4262C8.32562 12.5137 8.25 12.6581 8.25 12.8125V21.875C8.25 22.22 8.53 22.5 8.875 22.5H10.125V15C10.125 14.655 10.405 14.375 10.75 14.375H20.75C21.095 14.375 21.375 14.655 21.375 15V22.5H22.625C22.97 22.5 23.25 22.22 23.25 21.875V12.8125C23.25 12.6581 23.1744 12.5137 23.0475 12.4262Z" fill="white"></path>
    <path d="M11.9985 19.375C11.826 19.375 11.686 19.515 11.686 19.6875V22.1875C11.686 22.36 11.826 22.5 11.9985 22.5H15.1235C15.296 22.5 15.436 22.36 15.436 22.1875V19.6875C15.436 19.515 15.296 19.375 15.1235 19.375C13.7505 19.375 13.5389 19.375 11.9985 19.375Z" fill="#F3F9FF"></path>
    <path d="M16.4995 19.375C16.327 19.375 16.187 19.515 16.187 19.6875V22.1875C16.187 22.36 16.327 22.5 16.4995 22.5H19.6245C19.797 22.5 19.937 22.36 19.937 22.1875V19.6875C19.937 19.515 19.797 19.375 19.6245 19.375C18.2515 19.375 18.0398 19.375 16.4995 19.375Z" fill="#F3F9FF"></path>
    <path d="M14.1875 15.75C14.015 15.75 13.875 15.89 13.875 16.0625V18.5625C13.875 18.735 14.015 18.875 14.1875 18.875H17.3125C17.485 18.875 17.625 18.735 17.625 18.5625V16.0625C17.625 15.89 17.485 15.75 17.3125 15.75C15.9395 15.75 15.7278 15.75 14.1875 15.75Z" fill="#F2D14D"></path>
</svg>