<svg xmlns="http://www.w3.org/2000/svg" width="31" height="30" viewBox="0 0 31 30" fill="none">
    <path d="M7.41788 0H24.0821C27.7609 0 30.75 2.98905 30.75 6.66788V23.3321C30.75 27.0109 27.7609 30 24.0821 30H7.41788C3.73905 30 0.75 27.0109 0.75 23.3321V6.66788C0.75 2.98905 3.73905 0 7.41788 0Z" fill="#4D8DBD"></path>
    <path d="M24.2244 28.3356H7.35217C4.64779 28.3356 2.45801 26.1458 2.45801 23.4414V6.55822C2.45801 3.85384 4.64779 1.66406 7.35217 1.66406H24.2354C26.9398 1.66406 29.1295 3.85384 29.1295 6.55822V23.4414C29.1186 26.1458 26.9288 28.3356 24.2244 28.3356Z" fill="#216191"></path>
    <path d="M30.75 23.3321C30.75 27.0109 27.7609 30 24.0821 30H15.75V0H24.0821C27.7609 0 30.75 2.98905 30.75 6.66788V23.3321Z" fill="#216191"></path>
    <path d="M15.75 1.66406H23.8631C26.7427 1.66406 29.0748 3.99618 29.0748 6.87574V23.113C29.0748 25.9925 26.7427 28.3247 23.8631 28.3247H15.75V1.66406Z" fill="#0A4A7A"></path>
    <path fillRule="evenodd" clip-rule="evenodd" d="M24.9633 12.2554C25.1586 12.0601 25.1586 11.7436 24.9633 11.5483L21.9738 8.55871C21.7785 8.36345 21.4619 8.36345 21.2666 8.55871L15.6998 14.1256L12.6822 11.1079C12.4869 10.9127 12.1703 10.9127 11.9751 11.1079L8.81304 14.27C8.61778 14.4652 8.61778 14.7818 8.81304 14.9771L12.1636 18.3276C12.17 18.3349 12.1767 18.3419 12.1836 18.3488L15.1732 21.3384C15.3685 21.5337 15.6851 21.5337 15.8803 21.3384L24.9633 12.2554Z" fill="#F3F9FF"></path>
</svg>