<svg width="20" height="20" viewBox="0 0 20 20" fill="none" xmlns="http://www.w3.org/2000/svg">
<path d="M10 13C9.82984 12.9991 9.662 12.9604 9.50867 12.8866C9.35534 12.8128 9.22035 12.7058 9.11351 12.5733L6.30739 9.17333C6.14341 8.96865 6.04023 8.722 6.00959 8.46151C5.97895 8.20102 6.02209 7.93716 6.13409 7.7C6.22492 7.49388 6.37315 7.31828 6.56108 7.19415C6.74901 7.07002 6.96869 7.00262 7.19388 7H12.8061C13.0313 7.00262 13.251 7.07002 13.4389 7.19415C13.6268 7.31828 13.7751 7.49388 13.8659 7.7C13.9779 7.93716 14.0211 8.20102 13.9904 8.46151C13.9598 8.722 13.8566 8.96865 13.6926 9.17333L10.8865 12.5733C10.7796 12.7058 10.6447 12.8128 10.4913 12.8866C10.338 12.9604 10.1702 12.9991 10 13Z" fill="black"></path>
</svg>