<svg width="31" height="30" viewBox="0 0 31 30" fill="none" xmlns="http://www.w3.org/2000/svg">
    <path d="M6.91788 0H23.5821C27.2609 0 30.25 2.98905 30.25 6.66788V23.3321C30.25 27.0109 27.2609 30 23.5821 30H6.91788C3.23905 30 0.25 27.0109 0.25 23.3321V6.66788C0.25 2.98905 3.23905 0 6.91788 0Z" fill="#4D8DBD"></path>
    <path d="M30.25 23.3321C30.25 27.0109 27.2609 30 23.5821 30H15.25V0H23.5821C27.2609 0 30.25 2.98905 30.25 6.66788V23.3321Z" fill="#216191"></path>
    <path d="M23.7249 28.3356H6.85266C4.14828 28.3356 1.9585 26.1458 1.9585 23.4414V6.55822C1.9585 3.85384 4.14828 1.66406 6.85266 1.66406H23.7359C26.4402 1.66406 28.63 3.85384 28.63 6.55822V23.4414C28.6191 26.1458 26.4293 28.3356 23.7249 28.3356Z" fill="#216191"></path>
    <path d="M15.25 1.66406H23.3631C26.2427 1.66406 28.5748 3.99618 28.5748 6.87574V23.113C28.5748 25.9925 26.2427 28.3247 23.3631 28.3247H15.25V1.66406Z" fill="#0A4A7A"></path>
    <path opacity="0.5" d="M15.25 23.4531C19.6003 23.4531 23.1269 19.9265 23.1269 15.5762C23.1269 11.2258 19.6003 7.69922 15.25 7.69922C10.8997 7.69922 7.37305 11.2258 7.37305 15.5762C7.37305 19.9265 10.8997 23.4531 15.25 23.4531Z" fill="#4D8DBD"></path>
    <path d="M15.2498 6.78125C10.3554 6.78125 6.38965 10.747 6.38965 15.6415C6.38965 20.5359 10.3554 24.5017 15.2498 24.5017C20.1443 24.5017 24.1101 20.5359 24.1101 15.6415C24.1101 10.747 20.1443 6.78125 15.2498 6.78125ZM15.2498 22.5788C11.4152 22.5788 8.31245 19.4761 8.31245 15.6415C8.31245 11.8068 11.4152 8.70406 15.2498 8.70406C19.0845 8.70406 22.1872 11.8068 22.1872 15.6415C22.1872 19.4652 19.0845 22.5788 15.2498 22.5788Z" fill="white"></path>
    <path d="M15.2607 9.74219C12.005 9.74219 9.37207 12.3751 9.37207 15.6308H15.2607V9.74219Z" fill="#FFD52E"></path>
    <path d="M17.8831 7.35981H12.6172V5.5681C12.6172 5.25128 12.8685 5 13.1853 5H17.315C17.6318 5 17.8831 5.25128 17.8831 5.5681V7.35981Z" fill="white"></path>
    <path d="M9.1971 7.37077L8.17014 8.23385C8.06089 8.32125 8.04997 8.4742 8.13737 8.58345L9.04415 9.66502L10.4535 8.48512L9.5467 7.40354C9.44837 7.29429 9.29542 7.28337 9.1971 7.37077Z" fill="white"></path>
    <path d="M22.34 8.23385L21.313 7.37077C21.2038 7.28337 21.0508 7.29429 20.9634 7.40354L20.0566 8.48512L21.466 9.66502L22.3727 8.58345C22.4601 8.4742 22.4383 8.32125 22.34 8.23385Z" fill="white"></path>
</svg>