<svg xmlns="http://www.w3.org/2000/svg" viewBox="0 0 753.96 754.43">
  <defs>
    
  </defs>
  <g id="Layer_2" data-name="Layer 2">
    <g id="Layer_1-2" data-name="Layer 1">
      <g id="Layer_2-2" data-name="Layer 2">
        <g id="Layer_5" data-name="Layer 5">
          <circle class="cls-1" cx="377.64" cy="376.32" r="371.82"></circle>
        </g>
        <g id="Layer_14" data-name="Layer 14">
          <path class="cls-2" d="M238.22,724.2c-.93-.35,1.11-8.44,5.6-22.8,2.25-7.18,5.13-15.95,8.52-26.07s7.23-21.62,10.62-34.43c1.69-6.41,3.22-13.15,4.5-20.25s2.29-14.53,3-22.26,1-15.75,1-24q0-6.2-.4-12.57a47,47,0,0,0-.54-5.8,11.13,11.13,0,0,0-1.3-3.88,4.11,4.11,0,0,0-.86-1,7.75,7.75,0,0,0-1.42-.9,33.46,33.46,0,0,0-5.32-1.84c-4.25-1.25-8.8-2.41-13.51-3.87a78.28,78.28,0,0,1-14.49-5.91,46.13,46.13,0,0,1-7.12-4.78,38.13,38.13,0,0,1-6.17-6.46,37.15,37.15,0,0,1-4.62-7.89,31,31,0,0,1-2.38-9.41,26.1,26.1,0,0,1,1.15-10.31,26.58,26.58,0,0,1,1-2.5c.39-.82.79-1.56,1.2-2.33a26.81,26.81,0,0,1,3.09-4.25,30.71,30.71,0,0,1,7.82-6.26,45.21,45.21,0,0,1,8.44-3.6l1.72-.53h0l-.06-.06-.78-.76-3-3c-1-1-1.92-2.06-2.89-3.08l-2.85-3.11c-.93-1-1.93-2-2.79-3.13l-5.31-6.45c-.91-1-1.69-2.2-2.52-3.3l-2.46-3.34a190.92,190.92,0,0,1-16.84-27.81c-.59-1.19-1.23-2.36-1.79-3.57l-1.61-3.63c-.53-1.21-1.06-2.42-1.6-3.62s-1.07-2.4-1.51-3.64L189,404.48c-.49-1.2-.85-2.44-1.24-3.68s-.77-2.46-1.16-3.68l-1.14-3.67c-.38-1.22-.64-2.47-1-3.7l-1.84-7.36c-.46-2.47-.93-4.92-1.39-7.37-.22-1.22-.49-2.43-.65-3.65s-.32-2.45-.47-3.67a174.32,174.32,0,0,1-1.48-28.61q.23-3.49.45-6.93c.08-1.14.14-2.28.24-3.42s.3-2.25.44-3.37c.3-2.24.6-4.45.89-6.65s.84-4.34,1.26-6.48a166.23,166.23,0,0,1,16.24-45.37,158.14,158.14,0,0,1,22.72-32.43l1.42-1.63c.49-.52,1-1,1.5-1.52l2.92-2.92,2.82-2.81c.93-.9,1.93-1.7,2.86-2.53l5.41-4.65,5.19-3.85A93.25,93.25,0,0,1,252,208.6c1.35-.8,2.57-1.57,3.74-2.18s2.27-1.09,3.25-1.54c3.89-1.79,6-2.49,6.27-2s-1.39,2-4.7,4.6c-.82.64-1.75,1.35-2.78,2.11s-2.07,1.73-3.25,2.69c-2.32,2-5.1,4.06-7.92,6.81l-4.57,4.19-4.75,4.91c-.82.86-1.69,1.7-2.51,2.63l-2.46,2.88-2.57,3c-.43.51-.88,1-1.31,1.54l-1.23,1.64a165.8,165.8,0,0,0-33.18,74.71c-.32,2-.7,4-1,6s-.42,4.1-.63,6.17l-.33,3.12c-.06,1-.08,2.1-.13,3.16q-.12,3.16-.25,6.38a167.83,167.83,0,0,0,2,26.4c.17,1.12.33,2.24.5,3.37s.45,2.24.67,3.37c.46,2.24.93,4.51,1.4,6.78l1.82,6.77c.31,1.13.57,2.28.94,3.41l1.11,3.37c.37,1.13.74,2.26,1.12,3.4s.72,2.28,1.19,3.39l2.63,6.74c.42,1.14.94,2.24,1.44,3.35s1,2.22,1.52,3.33l1.53,3.36c.53,1.1,1.13,2.18,1.69,3.28a181.44,181.44,0,0,0,15.79,25.66l2.29,3.08c.77,1,1.49,2.08,2.34,3l4.94,6c.8,1,1.72,1.93,2.59,2.89l2.65,2.87c.89.94,1.74,1.94,2.67,2.85l2.81,2.73,2.15,2.1,1.5,1.46c.5.49,1.07.95,1.6,1.42l6.41,5.59,12.61,11-17.07,2c-2.91.31-5.54.75-8.2,1.2l-3.8.86-.48.11h-.27l-.41.13-.83.24a31.85,31.85,0,0,0-5.7,2.36,16,16,0,0,0-4.06,3.17,12.6,12.6,0,0,0-1.39,1.85c-.17.35-.35.68-.54,1s-.25.69-.4,1a11.38,11.38,0,0,0-.51,4.49,17.25,17.25,0,0,0,1.21,5,24.69,24.69,0,0,0,6.62,9,32.66,32.66,0,0,0,4.84,3.32,64.8,64.8,0,0,0,11.8,5c4.24,1.39,8.69,2.62,13.23,4a45.63,45.63,0,0,1,7.57,2.9,20.88,20.88,0,0,1,4.19,2.9,18.06,18.06,0,0,1,3.4,4.19,24,24,0,0,1,2.9,8.72,56.23,56.23,0,0,1,.54,7.33c.17,4.48.14,8.9.08,13.26-.22,8.7-.83,17.12-1.84,25.21s-2.38,15.83-4,23.19-3.57,14.34-5.64,20.89c-4.18,13.1-8.8,24.49-12.91,34.4s-7.78,18.34-10.84,25.22C243,717.14,239.15,724.55,238.22,724.2Z"></path>
          <path class="cls-2" d="M265.4,474a48.49,48.49,0,0,1-7.9-3.51l-.28-.21a62.49,62.49,0,0,1-20.57-24,4.3,4.3,0,0,0-5.67-2.17l-.33.17a101.41,101.41,0,0,1-13.33-26.62c-2-6.09-11.65-3.48-9.64,2.66a112.62,112.62,0,0,0,23.82,40.93,4.35,4.35,0,0,0,3.66,1.57,73,73,0,0,0,8.1,8.94,3.77,3.77,0,0,0,1.25,1.9,66.19,66.19,0,0,0,7.11,4.87c.19.13.37.27.57.4a4.77,4.77,0,0,0,1.27.65,60.51,60.51,0,0,0,9.29,4.09C268.84,485.71,271.46,476.06,265.4,474Z"></path>
        </g>
        <g id="Layer_6" data-name="Layer 6">
          <path class="cls-3" d="M505.83,711q-4.35-7.53-8.48-15.17c-.25-.89-.52-1.77-.78-2.65a26.47,26.47,0,0,0,.08-8.52,114.72,114.72,0,0,0-2.58-15.52,108.42,108.42,0,0,0-11.89-29l-.3-.46q-4.33-28.06-7.26-56.34a10.19,10.19,0,0,0-3-6.45v-3q0-6.3.32-12.58c.16-3.23-.17-7.31,1.47-10.19,4.13-7.22-3.18-13.91-9.42-12.78a6.94,6.94,0,0,0-3-1.45c-8.12-1.59-16.82.18-25.09,2.3a8.86,8.86,0,0,0-4,0,8.2,8.2,0,0,0-3.52,1.94l-1,.26q-7.94,2-15.75,4.48l-.27.08-2.94-.7a111.75,111.75,0,0,0-18-2.89c-12.13-.82-24.44.1-36.58.42l-38.88,1h-.74a80.19,80.19,0,0,1-15.75-6.44c-8-4.31-15.32,4.93-12.29,11.3a12.37,12.37,0,0,0-.18,1.49c-1.24,28.12-2.49,56.54-10.64,83.68-7.65,25.39-21.59,49.14-25.74,75.47a17.69,17.69,0,0,0,.36,7.86A8.86,8.86,0,0,0,256,728l.18.06a4.51,4.51,0,0,0,3.52,5.08c3.12.81,6.28,1.47,9.46,2a5.31,5.31,0,0,0,4.64,4.38A210.8,210.8,0,0,0,296.24,741a109,109,0,0,0,24.52,1.84c7.57,1.36,15.16,2.61,22.78,3.6a4.34,4.34,0,0,0,.87.12c3,.38,6,.73,9,1a242.16,242.16,0,0,0,49.85-.48c33.43-3.66,65.5-13.06,97.37-23.43a8.74,8.74,0,0,0,5.2-12.65Z"></path>
        </g>
        <g id="Layer_4" data-name="Layer 4">
          <ellipse class="cls-4" cx="372.82" cy="509.6" rx="151.12" ry="35.43"></ellipse>
          <path class="cls-5" d="M465.47,540.44a358,358,0,0,0,9.73,89.67c7.12,29.82,17.18,58.83,27.24,87.76,2.73,7.85,15.29,4.47,12.53-3.46-9.85-28.33-19.7-56.74-26.79-85.92a344.92,344.92,0,0,1-9.71-88c.14-8.36-12.86-8.37-13,0Z"></path>
          <path class="cls-5" d="M277.09,542.3a344.92,344.92,0,0,1-9.71,88c-7.09,29.18-16.94,57.59-26.8,85.93-2.75,7.91,9.8,11.32,12.54,3.45,10.06-28.93,20.12-57.94,27.24-87.76a358,358,0,0,0,9.73-89.66c-.14-8.36-13.14-8.38-13,0Z"></path>
        </g>
        <g id="Layer_2-2-2" data-name="Layer 2-2">
          <ellipse class="cls-6" cx="373.06" cy="331.38" rx="179.77" ry="178.09"></ellipse>
          <circle class="cls-7" cx="309.76" cy="317.39" r="61.97"></circle>
          <circle class="cls-7" cx="434.22" cy="315.57" r="61.97"></circle>
          <path class="cls-5" d="M395.14,366.7c.23-.13.57,0,1,.4a6.63,6.63,0,0,1,1.51,2.12,12.66,12.66,0,0,1,1.14,4,17.14,17.14,0,0,1-.36,5.53,19.77,19.77,0,0,1-2.62,6.25,20.26,20.26,0,0,1-5.43,5.68,27.4,27.4,0,0,1-7.59,3.79,36.59,36.59,0,0,1-8.68,1.59,44.55,44.55,0,0,1-8.64-.27,32.47,32.47,0,0,1-8-2,23.75,23.75,0,0,1-6.63-4,18.16,18.16,0,0,1-4.18-5.47,13.89,13.89,0,0,1-1.32-9.55c.64-2.24,1.64-3.13,2.07-3s.52,1.36.83,3.14a15.53,15.53,0,0,0,2.94,6.65,15,15,0,0,0,3.51,3.33,20,20,0,0,0,5.14,2.43,31,31,0,0,0,6.48,1.24,49.83,49.83,0,0,0,7.33.09,28.43,28.43,0,0,0,13-3.65,16.22,16.22,0,0,0,4.24-3.59,17.78,17.78,0,0,0,3.84-8.21,19.42,19.42,0,0,0,.22-3.23C394.85,368.13,394.62,367,395.14,366.7Z"></path>
          <ellipse class="cls-8" cx="420.74" cy="313.24" rx="19.56" ry="21.62"></ellipse>
          <ellipse class="cls-5" cx="418.97" cy="313.24" rx="9.2" ry="10.54"></ellipse>
          <ellipse class="cls-9" cx="426.69" cy="305.32" rx="3.15" ry="4.07"></ellipse>
          <path class="cls-5" d="M488.08,249c-.44,1.17-5.44.4-13.25-1.21s-18.46-4-30.31-5.76-22.63-2.65-30.53-3.14-12.88-.74-13.08-2,4.64-3.18,12.84-4.29a115.53,115.53,0,0,1,32.11.65,133.12,133.12,0,0,1,30.83,8.53C484.23,245,488.5,247.89,488.08,249Z"></path>
          <path class="cls-5" d="M243.36,253.93c-.3-.62.62-1.78,2.67-3.26a52.14,52.14,0,0,1,9.14-4.75,191.42,191.42,0,0,1,31.84-9.7c6.34-1.4,12.44-2.49,18.07-3.22,1.41-.17,2.79-.33,4.13-.47l4-.31c1.33,0,2.57-.09,3.84-.08a30.56,30.56,0,0,1,3.7.28c8.67,1.23,13.71,3.61,13.43,5s-5.5,1.63-13.69,2.28c-1.08.05-2,.24-2.92.36l-3.29.63-3.64.78-3.9.87-17.48,3.92c-12.43,2.77-23.74,5.11-32,6.63-4.12.74-7.44,1.31-9.81,1.54S243.68,254.58,243.36,253.93Z"></path>
          <path class="cls-5" d="M442.38,443.3c-.29.39-2-.44-5.2-1.69-1.58-.62-3.53-1.33-5.83-2.09s-5-1.55-7.89-2.44a183.54,183.54,0,0,0-46.9-7.23,180.87,180.87,0,0,0-26.11,1.35c-8,1-15.12,2.49-21.15,3.79s-10.92,2.44-14.36,3.06-5.4.77-5.54.32,1.56-1.44,4.77-2.85,7.92-3.23,13.88-5.16A151,151,0,0,1,349.54,425a147.06,147.06,0,0,1,54.21,1.16A127.27,127.27,0,0,1,425,432.54c2.92,1.21,5.54,2.33,7.79,3.47a46.23,46.23,0,0,1,5.62,3.27C441.39,441.34,442.62,443,442.38,443.3Z"></path>
          <ellipse class="cls-8" cx="324.45" cy="313.24" rx="19.56" ry="21.62"></ellipse>
          <ellipse class="cls-5" cx="322.69" cy="313.24" rx="9.2" ry="10.54"></ellipse>
          <ellipse class="cls-9" cx="330.4" cy="305.32" rx="3.15" ry="4.07"></ellipse>
        </g>
        <g id="Layer_13" data-name="Layer 13">
          <g class="cls-10">
            <path class="cls-9" d="M458.62,731.07c-1.9.77-4.64-.66-7.8-4.18s-6.65-9.13-9.92-16.39c-1.64-3.62-3.23-7.64-4.73-12-.76-2.17-1.49-4.41-2.21-6.72l-1.06-3.51c-.35-1.2-.68-2.32-1-3.69-.8-2.76-1.25-5.13-1.82-7.74s-1.08-5.2-1.59-7.89c-1-5.37-2-10.94-2.89-16.67-3.55-22.92-5.1-43.91-4.74-59.25l.08-1.6c0-.54.07-1,.1-1.45.08-1,.17-1.87.27-2.79.2-1.83.45-3.61.77-5.29a34.5,34.5,0,0,1,2.71-8.63,14,14,0,0,1,3.63-4.91,3.79,3.79,0,0,1,3.36-.94c2,.61,3.14,3.25,4.57,7,.71,1.89,1.48,4.09,2.4,6.72.46,1.34,1,2.77,1.46,4.29s1,3.15,1.58,4.85c5,14.49,9.79,34.68,13.28,57.27.88,5.64,1.62,11.17,2.25,16.53q.48,4,.85,7.9c.26,2.55.44,5.25.73,7.37q.42,3.63.81,7.07c.23,2.31.46,4.56.67,6.73q.62,6.5,1,12a137.34,137.34,0,0,1,.44,17.8C461.5,727.42,460.62,730.29,458.62,731.07Z"></path>
          </g>
        </g>
        <g id="Layer_15" data-name="Layer 15">
          <circle class="cls-11" cx="376.32" cy="378.11" r="371.82"></circle>
        </g>
        <g id="Layer_10" data-name="Layer 10" class="cls-12">
          <g class="cls-12">
            <path class="cls-9" d="M481.51,454c2,2.36,1.72,6.41-.65,11.7s-6.94,11.77-13.69,18.73A124.37,124.37,0,0,1,455.38,495a142.66,142.66,0,0,1-15.16,10.4,145.28,145.28,0,0,1-39.7,16.27A137.88,137.88,0,0,1,378,525.1a124.41,124.41,0,0,1-21.23-.37l-5-.62c-1.63-.23-3.24-.55-4.82-.84-3.16-.54-6.19-1.39-9.1-2.14-1.46-.4-2.87-.89-4.25-1.33s-2.74-.88-4.05-1.43-2.57-1-3.81-1.57l-1.82-.79-1.76-.87a71.54,71.54,0,0,1-6.42-3.54,56.74,56.74,0,0,1-5.4-3.71c-1.62-1.28-3.09-2.49-4.37-3.72a44,44,0,0,1-3.3-3.66c-.47-.58-.9-1.14-1.28-1.71a19.23,19.23,0,0,1-1-1.7,15,15,0,0,1-1.26-3.08,6.31,6.31,0,0,1,.36-4.91,7.35,7.35,0,0,1,3.91-3,17.32,17.32,0,0,1,3-.83c.56-.1,1.14-.19,1.75-.25s1.26-.17,1.92-.24c1.33-.12,2.75-.19,4.25-.21s3.14-.1,4.81-.07l11.1.06h6.23c1.06,0,2.18-.06,3.28-.07s2.23,0,3.37-.07c2.3-.15,4.63-.13,7.05-.35,1.21-.09,2.42-.12,3.66-.23l3.74-.32c5.05-.52,10.31-1.06,15.72-2s11-2,16.62-3.34c22.79-5.55,43.47-14.13,59.63-20.1,8.07-3,15-5.19,20.49-6.09S479.53,451.6,481.51,454Z"></path>
          </g>
          <path class="cls-5" d="M520.78,501.9c.47,0,1,1.22.87,3.62a18.14,18.14,0,0,1-4.11,9.54c-2.82,3.67-7.53,7-13.12,9.55-2.8,1.28-5.74,2.43-8.87,3.52l-9.93,3.48A307.71,307.71,0,0,1,435,542.89a409.76,409.76,0,0,1-63.3,3.59,604.39,604.39,0,0,1-62.91-4.59c-4.81-.56-9.47-1.21-14-1.86s-8.92-1.31-13.16-2-8.31-1.32-12.29-2.06-7.85-1.55-11.53-2.54A83.14,83.14,0,0,1,247.36,530a72.71,72.71,0,0,1-8.77-4.31,71,71,0,0,1-7.07-4.69,28.16,28.16,0,0,1-5.45-5.29,17.59,17.59,0,0,1-2.94-5.52,9.93,9.93,0,0,1-.32-4.75,5.84,5.84,0,0,1,.57-1.61,3.61,3.61,0,0,1,.68-1c.46-.48.8-.62,1-.51.5.24.31,1.46.72,3.18a10.17,10.17,0,0,0,1.38,2.9,17.1,17.1,0,0,0,3.13,3.34,25.29,25.29,0,0,0,5,3.23c2.11,1.08,4.43,2.17,7,3.19a82.47,82.47,0,0,0,17.78,5c3.4.59,7,1,10.91,1.45s8,.78,12.2,1.18,8.61.85,13.11,1.24,9.14.85,13.89,1.21c19,1.58,39.88,3,61.75,3.35a529.17,529.17,0,0,0,61.42-2.32,430.77,430.77,0,0,0,49.5-7.81l9.92-2.37c3.16-.71,6.09-1.47,8.68-2.24,5.2-1.55,9.16-3.5,11.92-5.78a22.63,22.63,0,0,0,5.41-6.36C519.75,503,520.23,501.86,520.78,501.9Z"></path>
          <path class="cls-5" d="M474.32,534.87c.24.46-.13,1.2-1.06,2.21a20.93,20.93,0,0,1-1.83,1.69c-.76.61-1.66,1.27-2.69,2a88.59,88.59,0,0,1-19,9.31,152.15,152.15,0,0,1-30.39,7.47,238.33,238.33,0,0,1-37.94,2.16c-13.4-.2-26-1.19-37.37-2.25s-21.86-2.29-30.58-4.4a84.93,84.93,0,0,1-19.84-7.15c-1.11-.58-2.07-1.14-2.89-1.67-.37-.25-.86-.54-1.27-.86a5.29,5.29,0,0,1-.95-1,2.45,2.45,0,0,1-.54-1.84,2.14,2.14,0,0,1,.53-1.06c.18-.16.3-.15.52,0a3.34,3.34,0,0,0,1.14.42,6.41,6.41,0,0,0,.88.11h1.13c.94.08,2,.19,3.2.34,4.77.57,11.51,1.61,19.82,2.24s18.32.81,29.76,1.09,23.83.86,36.77,1.06,25.15,0,36.17-.91a247.25,247.25,0,0,0,29.06-4c8.21-1.61,14.8-3.38,19.47-4.47,1.17-.29,2.22-.51,3.15-.68a21.6,21.6,0,0,1,2.39-.38C473.26,534.26,474.09,534.41,474.32,534.87Z"></path>
          <path class="cls-5" d="M246.79,729.76c-1.81-1-2.14-4.39-1.41-9.63a199.2,199.2,0,0,1,4.76-20.88c1.13-4.25,2.36-8.9,3.68-13.89.65-2.5,1.34-5,2-7.72s1.29-5.5,2-8.34,1.46-5.75,2.26-8.71,1.63-6.06,2.47-9.18c1.71-6.3,3.58-12.79,5.6-19.4s4.09-13,6.19-19.23q1.57-4.57,3.11-9c1-2.85,1.93-5.55,2.76-8.12s1.52-5,2.16-7.4,1.19-4.82,1.66-7.2c1-4.73,1.7-9.32,2.35-13.61,1.27-8.57,2.29-15.91,3.69-21.06s3.08-8.13,5.14-8.3,4.25,2.44,6.44,7.39a89.21,89.21,0,0,1,5.83,21.82,109.84,109.84,0,0,1,1.2,16c0,2.93-.13,6-.4,9.19a92.5,92.5,0,0,1-1.37,9.75c-.63,3.24-1.35,6.47-2.13,9.63s-1.62,6.25-2.47,9.4c-1.72,6.3-3.59,12.79-5.61,19.41s-4.08,13-6.18,19.22q-.79,2.33-1.57,4.59c-.53,1.52-1.11,3.07-1.67,4.57q-1.66,4.53-3.35,8.83t-3.31,8.38c-1.11,2.69-2.39,5.34-3.6,7.84-2.47,5-5,9.55-7.49,13.58-5,8.07-9.84,14.09-13.82,17.83S248.62,730.76,246.79,729.76Z"></path>
          <path class="cls-5" d="M370.11,506c.24.95-1.13,2.48-4.5,3.52a24,24,0,0,1-6.31.93,48.25,48.25,0,0,1-8.32-.6c-3-.43-6.15-1.05-9.66-1.76-1.75-.34-3.55-.78-5.44-1.23S332,506,330,505.4a236.21,236.21,0,0,1-27-9,204.44,204.44,0,0,1-31.46-15.74,155.66,155.66,0,0,1-32.3-26l-3.82-4.13L231.78,446a110.65,110.65,0,0,1-6.91-9.36A157.34,157.34,0,0,1,213.24,416a220.67,220.67,0,0,1-15.37-46,215,215,0,0,1-5.07-48.32v-2.95l.13-2.94c.1-2,.14-3.9.3-5.84.33-3.87.63-7.7,1.18-11.48s1.15-7.5,1.79-11.17c.33-1.83.78-3.64,1.17-5.44s.78-3.6,1.29-5.35A163.83,163.83,0,0,1,213.93,238a157.06,157.06,0,0,1,20.76-29.18,142.88,142.88,0,0,1,21.75-19.66l5.15-3.5,1.24-.82,1.25-.74,2.43-1.43a90.36,90.36,0,0,1,8.91-4.6l2-.91,1.93-.74c1.25-.47,2.43-.89,3.52-1.26a32.33,32.33,0,0,1,5.71-1.46c3.19-.54,5-.35,5.47.58s-.53,2.56-2.71,4.76c-1.08,1.11-2.49,2.31-4.07,3.83-.81.75-1.68,1.52-2.61,2.33l-1.45,1.25-1.49,1.39c-2,1.89-4.35,3.87-6.71,6.25l-1.83,1.76-.95.9-.93,1-3.87,4A180.59,180.59,0,0,0,251.2,222a167.83,167.83,0,0,0-15.13,27.09,160.29,160.29,0,0,0-10.59,33.61c-.35,1.51-.58,3.06-.85,4.61s-.56,3.11-.76,4.69c-.39,3.17-.87,6.35-1.1,9.62s-.46,6.55-.64,9.87c-.09,1.67,0,3.35-.09,5V319c0,.85,0,1.69.05,2.54a212.79,212.79,0,0,0,5,42,221.82,221.82,0,0,0,12.83,40.33,144.11,144.11,0,0,0,9,17.36c1.68,2.68,3.33,5.32,5.22,7.76l2.72,3.71,2.92,3.52a150.77,150.77,0,0,0,25.69,23.9,245.36,245.36,0,0,0,26.66,17.17c17.14,9.62,32.2,16.29,42.26,21.35a87.65,87.65,0,0,0,11.2,4.78C368.17,504.39,369.87,504.91,370.11,506Z"></path>
        </g>
      </g>
      <path class="cls-13" d="M63.65,534.19,718,484l-7.41,22.7q-4.46,13.62-8.9,27.24a362.45,362.45,0,0,1-31.94,54.42,380.25,380.25,0,0,1-56.17,62.76l-55.24,38.72-67.2,29.09-44.69,11-46.61,5.87-29.1-.13L307,728.25l-59.37-17.12L185.39,677.7l-44.66-32.41L111.59,615.2,83.22,582.07Z"></path>
      <text class="cls-14" transform="translate(159.99 662.15) rotate(-5.02)">DELETED</text>
    </g>
  </g>
</svg>