<svg xmlns="http://www.w3.org/2000/svg" viewBox="0 0 150 90"><defs></defs><path class="cls-1" d="M65.07,58.16c-2,5-4.64,8.8-8,11.19S49.61,72.9,44.59,72.9c-7.75,0-13.85-2.49-18.65-7.6S18.71,53.49,18.71,45c0-8.7,2.26-15.4,6.93-20.46s10.61-7.41,18.42-7.41c5.24,0,9.52,1.16,12.73,3.45s5.54,5.75,7.07,10.57l.88,2.76h15V1.5H63.24V4.73a32.25,32.25,0,0,0-4.75-2.2A43.14,43.14,0,0,0,43.41,0C31,0,20.56,4.35,12.33,12.94S0,32.27,0,45C0,57.93,4.19,68.78,12.46,77.25s19,12.8,31.7,12.8c9.68,0,18-2.63,24.7-7.8S80.12,69.77,82.38,60.54l1.19-4.9H66.06Z"></path><path class="cls-1" d="M125.31,88.42h16.23L150,73.25h-7.68V50a32.23,32.23,0,0,0-.74-7.88,16.29,16.29,0,0,0-2.64-5.5A17.74,17.74,0,0,0,132,31a22.31,22.31,0,0,0-9.25-1.86,26.33,26.33,0,0,0-11.07,2.41,29.61,29.61,0,0,0-3.5,1.93V1.58H91.94L83.35,16.9h7.73V88.42h17.06V51.61a27,27,0,0,1,6-4.7,12.51,12.51,0,0,1,6-1.64c1.13,0,3.16.15,4,1.1.12.14,1.17,1.6,1.17,8V88.42Z"></path></svg>