<svg id="Layer_1" data-name="Layer 1" xmlns="http://www.w3.org/2000/svg" viewBox="0 0 1249.4 248.27"><defs></defs><title>ChessMood Logo 2 - 16x9</title><g id="Layer_2" data-name="Layer 2"><g id="Слой_1" data-name="Слой 1"><path class="cls-1" fill="#2C2F32" d="M140.54,336.94c-3.87,9.66-9,17-15.45,21.61s-14.41,6.86-24.1,6.86c-15,0-26.75-4.81-36-14.68s-14-22.81-14-39.2c0-16.8,4.37-29.74,13.38-39.51S84.88,257.71,100,257.71c10.12,0,18.39,2.24,24.59,6.66s10.7,11.11,13.65,20.41l1.7,5.33h29V227.53H137v6.24a60.52,60.52,0,0,0-9.17-4.25,83.27,83.27,0,0,0-29.12-4.89c-24,0-44.13,8.4-60,25S14.88,287,14.88,311.53c0,25,8.09,45.92,24.06,62.28s36.69,24.71,61.22,24.71c18.69,0,34.76-5.07,47.7-15.06s21.74-24.1,26.1-41.92l2.3-9.46H142.45Z" transform="translate(-14.88 -224.63)"></path><path class="cls-1" fill="#2C2F32" d="M256.86,395.38H288.2l16.34-29.3H289.71v-44.9A62.19,62.19,0,0,0,288.28,306a31.16,31.16,0,0,0-5.1-10.62,34.25,34.25,0,0,0-13.4-10.86,43.19,43.19,0,0,0-17.86-3.59,50.77,50.77,0,0,0-21.38,4.66,58.44,58.44,0,0,0-6.76,3.72v-61.6H192.42l-16.58,29.59h14.92V395.38h33V324.29a52.21,52.21,0,0,1,11.58-9.07,24.08,24.08,0,0,1,11.59-3.17c2.18,0,6.1.29,7.72,2.12.24.28,2.26,3.09,2.26,15.45Z" transform="translate(-14.88 -224.63)"></path><polygon class="cls-2" fill="#F57C00" points="796.16 3.62 761.63 96.5 727.99 3.62 683.11 3.62 666 34.17 683.11 34.17 683.11 140.65 683.11 171.08 717.22 171.08 717.16 72.09 749.37 156.73 771.85 156.73 804.04 72.09 803.83 171.08 838.2 171.08 838.08 34.17 837.95 3.62 796.16 3.62"></polygon><path class="cls-2" fill="#F57C00" d="M1247.94,395.94l16.34-29.24h-14.83V228.24h-32.83l-16.45,29.51v.1h16.3V288a47.62,47.62,0,0,0-5.37-2.63,56,56,0,0,0-21.65-4,54.92,54.92,0,0,0-41,17A57.66,57.66,0,0,0,1132,339.94a56.85,56.85,0,0,0,16.67,41.65c11.06,11.1,25.1,16.72,41.92,16.72a53.84,53.84,0,0,0,21.13-3.86,47.63,47.63,0,0,0,4.63-2.32V396Zm-37.73-35.28a25.46,25.46,0,0,1-36,.7l-.7-.7a28.81,28.81,0,0,1-7.57-20.72c0-8.6,2.41-15.45,7.38-20.69a26,26,0,0,1,36.78-.19l.2.19a28.58,28.58,0,0,1,7.49,20.59A29,29,0,0,1,1210.21,360.66Z" transform="translate(-14.88 -224.63)"></path><path class="cls-2" fill="#F57C00" d="M968.83,298a54.07,54.07,0,0,0-76.45-1.68q-.86.82-1.68,1.68c-10.51,11.14-15.84,25.11-15.84,41.71s5.33,30.57,15.82,41.79a53.86,53.86,0,0,0,76.16,2c.69-.65,1.36-1.31,2-2,10.46-11.2,15.75-25.26,15.75-41.77S979.33,309.17,968.83,298Zm-19.72,62.38a27.43,27.43,0,0,1-38.62,0,31.33,31.33,0,0,1,0-41.19,25.38,25.38,0,0,1,19.21-8,29,29,0,0,1,8.69,1.26,8.73,8.73,0,1,1,15.47,8.09,8.48,8.48,0,0,1-1.76,2.31,29.39,29.39,0,0,1,4.72,16.92,28.16,28.16,0,0,1-7.67,20.6Z" transform="translate(-14.88 -224.63)"></path><path class="cls-3" fill="#F57C00" d="M941.79,284.84a32.31,32.31,0,1,0,32.29,32.33v0a32.29,32.29,0,0,0-32.27-32.31Zm4.41,40.4a8.77,8.77,0,1,1,8.76-8.77v0a8.75,8.75,0,0,1-8.75,8.75h0Z" transform="translate(-14.88 -224.63)"></path><path class="cls-2" fill="#F57C00" d="M1094.69,298a54.06,54.06,0,0,0-76.44-1.68c-.58.55-1.14,1.11-1.69,1.68-10.5,11.14-15.83,25.11-15.83,41.71s5.33,30.57,15.81,41.79a53.88,53.88,0,0,0,76.17,2c.69-.65,1.35-1.31,2-2,10.47-11.2,15.76-25.26,15.76-41.77S1105.16,309.17,1094.69,298ZM1075,360.4a27.42,27.42,0,0,1-38.63,0,31.33,31.33,0,0,1,0-41.19,25.41,25.41,0,0,1,19.32-8,31.27,31.27,0,0,1,5.79.54,8.73,8.73,0,1,1,16.27,6.32,8.87,8.87,0,0,1-1.48,2.49,28.69,28.69,0,0,1,6.45,19.31A28.18,28.18,0,0,1,1075,360.4Z" transform="translate(-14.88 -224.63)"></path><path class="cls-3" fill="#F57C00" d="M1067.89,284.84a32.31,32.31,0,1,0,32.25,32.37v-.06A32.28,32.28,0,0,0,1067.89,284.84Zm1.74,38.78a8.75,8.75,0,1,1,8.75-8.75,8.75,8.75,0,0,1-8.75,8.75Z" transform="translate(-14.88 -224.63)"></path><path class="cls-1" fill="#2C2F32" d="M543,338.56h0c-6.41-5.79-16.3-9.79-29.39-12.16l-12.07-2.2c-.42,0-1-.18-1.58-.23-6.61-1.22-17.71-4.12-17.71-9.66a6.13,6.13,0,0,1,3.09-5.29,17.67,17.67,0,0,1,10.16-2.53,24,24,0,0,1,13.88,3.86,21,21,0,0,1,8,11.18l.71,2.24h27V283.84H518.89v4a38.53,38.53,0,0,0-8.48-4,55.72,55.72,0,0,0-18-2.72c-12.32,0-22.4,3.24-29.95,9.65a32.64,32.64,0,0,0-11.59,26.07A30.45,30.45,0,0,0,460.22,340c6,5.62,15.24,9.56,27.44,11.74L505,354.57c9.66,1.82,12.71,3.36,13.71,4.12a5.12,5.12,0,0,1,1.94,4.55,7.74,7.74,0,0,1-3.13,6.41,15,15,0,0,1-9.46,2.75,14.1,14.1,0,0,1-2.44-.14h-1.18c-8.26.29-30.1-9.65-47.65-19.12l-4.79-2.6v45.18h26.1l.16-5.42a68.74,68.74,0,0,0,12.84,5.44,62.64,62.64,0,0,0,18.44,2.69c12.69,0,23.17-3.42,31.15-10.12A32.93,32.93,0,0,0,553,362.07,30.31,30.31,0,0,0,543,338.56Z" transform="translate(-14.88 -224.63)"></path><path class="cls-1" fill="#2C2F32" d="M666,338.56h0c-6.41-5.79-16.28-9.79-29.39-12.16l-12-2.11c-.43,0-1-.17-1.59-.23-6.62-1.21-17.71-4.11-17.71-9.65a6.12,6.12,0,0,1,3.07-5.29,17.78,17.78,0,0,1,10.18-2.53,24,24,0,0,1,13.87,3.86,20.93,20.93,0,0,1,7.95,11.18l.74,2.24h27v-40H642l-.14,4a38.59,38.59,0,0,0-8.46-4,55.84,55.84,0,0,0-18-2.72c-12.32,0-22.4,3.24-30,9.65a32.59,32.59,0,0,0-11.58,26.07q0,14.49,9.38,23.17c6.24,5.8,15.22,9.56,27.42,11.74l17.38,2.86c9.56,1.82,12.69,3.36,13.71,4.12a5.11,5.11,0,0,1,1.93,4.55,7.59,7.59,0,0,1-3.18,6.43,15,15,0,0,1-9.45,2.75,13.81,13.81,0,0,1-2.43-.14h-1.18c-8.3.29-30.12-9.65-47.66-19.12l-4.78-2.6v45.16h26.1l.16-5.42a68.74,68.74,0,0,0,12.84,5.44,62.53,62.53,0,0,0,18.48,2.69c12.69,0,23.17-3.42,31.15-10.12a32.93,32.93,0,0,0,12.28-26.24A30.29,30.29,0,0,0,666,338.56Z" transform="translate(-14.88 -224.63)"></path><path class="cls-1" fill="#2C2F32" d="M413.7,298.46c-10.87-11.36-25.25-17.09-42.75-17.09s-31.9,5.31-42.68,15.81S312,321.78,312,338.89c0,17.71,5.46,32.21,16.28,43.14s25.1,16.49,42.48,16.49a61.26,61.26,0,0,0,33.58-9.65A59.42,59.42,0,0,0,423,369.56H373.35a29.46,29.46,0,0,1-20.24-6.92,23.75,23.75,0,0,1-6.84-9.65l-.56-1.47H430V343C430,324.68,424.48,309.71,413.7,298.46Zm-67.47,26.32.68-1.53a22.08,22.08,0,0,1,5.79-7.84c4.46-3.73,10.43-5.54,18.25-5.54s13.79,1.81,18.23,5.56a21.25,21.25,0,0,1,5.79,7.72l.68,1.53Z" transform="translate(-14.88 -224.63)"></path><path class="cls-2" fill="#F57C00" d="M966.47,446.7A97.8,97.8,0,0,1,945,434.48l-11,21.88a84.88,84.88,0,0,0,19.31,9.48c44.07,16,92.21,5.1,113.2-35.22a58.6,58.6,0,0,0,2.72-5.91C1046.36,457,998.39,455.18,966.47,446.7Z" transform="translate(-14.88 -224.63)"></path></g></g></svg>